<svg width="16" height="16" xmlns="http://www.w3.org/2000/svg" xmlns:xlink="http://www.w3.org/1999/xlink" xmlns:svgjs="http://svgjs.com/svgjs" viewBox="0 0.037 16 15.926" fill="#222"><svg xmlns="http://www.w3.org/2000/svg" width="16" height="16" viewBox="1.695 1.789 13.516 13.453"><path paint-order="stroke fill markers" fill-rule="evenodd" d="M12.68 15.227c.187-.032-.032-.97-.032-.97l-1.468-3.53c-.469-.626-.032-.97-.032-.97l3.063-1.968c.875-.375 1-.562 1-.562-.375-.47-1.031-.47-1.031-.47h-3.5c-.438 0-.5-.53-.5-.53l-1.032-3.5c-.406-.938-.671-.938-.671-.938h.125s-.438 0-.844.938l-1.031 3.5s-.063.53-.5.53h-3.5s-.657 0-1.032.47c0 0 .157.25 1 .562L5.82 9.758s.5.234-.03.937l-1.501 3.532s-.172.984.016 1.015c.43.025 3.906-3.015 3.906-3.015s.234-.422.516.015c0 0 3.075 2.581 3.953 2.985z"/></svg></svg>